{
  "accessors": [
    {
      "bufferView": 2,
      "componentType": 5126,
      "count": 999,
      "max": [
        1.3866829872131348,
        0.46101701259613037,
        5.469283103942871
      ],
      "min": [
        -0.5104920268058777,
        -0.6141279935836792,
        3.3361880779266357
      ],
      "type": "VEC3"
    },
    {
      "bufferView": 2,
      "byteOffset": 11988,
      "componentType": 5126,
      "count": 999,
      "max": [
        0.9964640140533447,
        0.9997013211250305,
        0.9746017456054688
      ],
      "min": [
        -0.9999172687530518,
        -0.9992822408676147,
        -0.9878300428390503
      ],
      "type": "VEC3"
    },
    {
      "bufferView": 1,
      "componentType": 5126,
      "count": 999,
      "max": [
        0.9979090094566345,
        0.9937589764595032
      ],
      "min": [
        0.003020999953150749,
        0.006699000019580126
      ],
      "type": "VEC2"
    },
    {
      "bufferView": 0,
      "componentType": 5125,
      "count": 4659,
      "type": "SCALAR"
    },
    {
      "bufferView": 2,
      "byteOffset": 23976,
      "componentType": 5126,
      "count": 2123,
      "max": [
        1.3609620332717896,
        0.36021000146865845,
        6.258336067199707
      ],
      "min": [
        -0.7256090044975281,
        -0.4664910137653351,
        0.03538599982857704
      ],
      "type": "VEC3"
    },
    {
      "bufferView": 2,
      "byteOffset": 49452,
      "componentType": 5126,
      "count": 2123,
      "max": [
        0.9993788003921509,
        0.9997143149375916,
        0.9934165477752686
      ],
      "min": [
        -0.9983794093132019,
        -0.99997878074646,
        -0.9980117082595825
      ],
      "type": "VEC3"
    },
    {
      "bufferView": 1,
      "byteOffset": 7992,
      "componentType": 5126,
      "count": 2123,
      "max": [
        0.9921870231628418,
        0.993399977684021
      ],
      "min": [
        0.008086999878287315,
        0.0038530000019818544
      ],
      "type": "VEC2"
    },
    {
      "bufferView": 0,
      "byteOffset": 18636,
      "componentType": 5125,
      "count": 10197,
      "type": "SCALAR"
    },
    {
      "bufferView": 2,
      "byteOffset": 74928,
      "componentType": 5126,
      "count": 554,
      "max": [
        0.9046909809112549,
        0.3570150136947632,
        0.4769900143146515
      ],
      "min": [
        -0.8176019787788391,
        -0.5493029952049255,
        0.02111699990928173
      ],
      "type": "VEC3"
    },
    {
      "bufferView": 2,
      "byteOffset": 81576,
      "componentType": 5126,
      "count": 554,
      "max": [
        0.9977225661277771,
        0.9978530406951904,
        0.9996129870414734
      ],
      "min": [
        -0.9973080158233643,
        -0.9969606399536133,
        -0.9999223947525024
      ],
      "type": "VEC3"
    },
    {
      "bufferView": 1,
      "byteOffset": 24976,
      "componentType": 5126,
      "count": 554,
      "max": [
        0.9854429960250854,
        0.9794610142707825
      ],
      "min": [
        0.017684999853372574,
        0.009812000207602978
      ],
      "type": "VEC2"
    },
    {
      "bufferView": 0,
      "byteOffset": 59424,
      "componentType": 5125,
      "count": 2256,
      "type": "SCALAR"
    },
    {
      "bufferView": 2,
      "byteOffset": 88224,
      "componentType": 5126,
      "count": 313,
      "max": [
        1.0576980113983154,
        0.4004800021648407,
        3.9918460845947266
      ],
      "min": [
        -0.46374401450157166,
        -0.4355449974536896,
        0.6396870017051697
      ],
      "type": "VEC3"
    },
    {
      "bufferView": 2,
      "byteOffset": 91980,
      "componentType": 5126,
      "count": 313,
      "max": [
        0.9883289933204651,
        0.9927263855934143,
        0.9907770156860352
      ],
      "min": [
        -0.9996996521949768,
        -0.9970921277999878,
        -0.9991931915283203
      ],
      "type": "VEC3"
    },
    {
      "bufferView": 1,
      "byteOffset": 29408,
      "componentType": 5126,
      "count": 313,
      "max": [
        0.9821469783782959,
        0.984604001045227
      ],
      "min": [
        0.022644000127911568,
        0.016464000567793846
      ],
      "type": "VEC2"
    },
    {
      "bufferView": 0,
      "byteOffset": 68448,
      "componentType": 5125,
      "count": 1482,
      "type": "SCALAR"
    },
    {
      "bufferView": 2,
      "byteOffset": 95736,
      "componentType": 5126,
      "count": 404,
      "max": [
        0.7635300159454346,
        0.14177100360393524,
        5.928154945373535
      ],
      "min": [
        0.27632299065589905,
        -0.3794960081577301,
        5.708390235900879
      ],
      "type": "VEC3"
    },
    {
      "bufferView": 2,
      "byteOffset": 100584,
      "componentType": 5126,
      "count": 404,
      "max": [
        0.9977156519889832,
        0.9798608422279358,
        0.9777035117149353
      ],
      "min": [
        -0.9994640946388245,
        -0.9787198305130005,
        -0.9944619536399841
      ],
      "type": "VEC3"
    },
    {
      "bufferView": 1,
      "byteOffset": 31912,
      "componentType": 5126,
      "count": 404,
      "max": [
        0.9948269724845886,
        0.558633029460907
      ],
      "min": [
        0.008422999642789364,
        0.008071999996900558
      ],
      "type": "VEC2"
    },
    {
      "bufferView": 0,
      "byteOffset": 74376,
      "componentType": 5125,
      "count": 1482,
      "type": "SCALAR"
    },
    {
      "bufferView": 2,
      "byteOffset": 105432,
      "componentType": 5126,
      "count": 1738,
      "max": [
        0.8190680146217346,
        0.3534800112247467,
        6.399129867553711
      ],
      "min": [
        0.1383640021085739,
        -0.5490559935569763,
        4.971718788146973
      ],
      "type": "VEC3"
    },
    {
      "bufferView": 2,
      "byteOffset": 126288,
      "componentType": 5126,
      "count": 1738,
      "max": [
        0.9994076490402222,
        0.9970686435699463,
        0.9990265965461731
      ],
      "min": [
        -0.9992700815200806,
        -0.9994297027587891,
        -0.9930111169815063
      ],
      "type": "VEC3"
    },
    {
      "bufferView": 1,
      "byteOffset": 35144,
      "componentType": 5126,
      "count": 1738,
      "max": [
        0.9978179931640625,
        0.9976040124893188
      ],
      "min": [
        0.005309999920427799,
        0.0012049999786540866
      ],
      "type": "VEC2"
    },
    {
      "bufferView": 0,
      "byteOffset": 80304,
      "componentType": 5125,
      "count": 5007,
      "type": "SCALAR"
    }
  ],
  "asset": {
    "extras": {
      "author": "PACE GAMING FF (https://sketchfab.com/MDARBAZ_.OR___-PACEGAMINGFF)",
      "license": "CC-BY-4.0 (http://creativecommons.org/licenses/by/4.0/)",
      "source": "https://sketchfab.com/3d-models/freefire-new-girl-model-by-pace-gaming-ff-9eedd62f443c4dbba92e7e468714f77c",
      "title": "freefire new girl model by pace gaming ff"
    },
    "generator": "Sketchfab-13.42.0",
    "version": "2.0"
  },
  "bufferViews": [
    {
      "buffer": 0,
      "byteLength": 100332,
      "name": "floatBufferViews",
      "target": 34963
    },
    {
      "buffer": 0,
      "byteLength": 49048,
      "byteOffset": 100332,
      "byteStride": 8,
      "name": "floatBufferViews",
      "target": 34962
    },
    {
      "buffer": 0,
      "byteLength": 147144,
      "byteOffset": 149380,
      "byteStride": 12,
      "name": "floatBufferViews",
      "target": 34962
    }
  ],
  "buffers": [
    {
      "byteLength": 296524,
      "uri": "scene.bin"
    }
  ],
  "images": [
    {
      "uri": "textures/mat0.018_baseColor.png"
    },
    {
      "uri": "textures/mat0.019_baseColor.png"
    },
    {
      "uri": "textures/mat0.020_baseColor.png"
    },
    {
      "uri": "textures/mat0.021_baseColor.png"
    },
    {
      "uri": "textures/mat0.022_baseColor.png"
    },
    {
      "uri": "textures/mat0.023_baseColor.png"
    }
  ],
  "materials": [
    {
      "doubleSided": true,
      "name": "mat0.018",
      "pbrMetallicRoughness": {
        "baseColorTexture": {
          "index": 0
        },
        "metallicFactor": 0.0,
        "roughnessFactor": 0.6342256411356907
      }
    },
    {
      "doubleSided": true,
      "name": "mat0.019",
      "pbrMetallicRoughness": {
        "baseColorTexture": {
          "index": 1
        },
        "metallicFactor": 0.0,
        "roughnessFactor": 0.6342256411356907
      }
    },
    {
      "doubleSided": true,
      "name": "mat0.020",
      "pbrMetallicRoughness": {
        "baseColorTexture": {
          "index": 2
        },
        "metallicFactor": 0.0,
        "roughnessFactor": 0.6342256411356907
      }
    },
    {
      "doubleSided": true,
      "name": "mat0.021",
      "pbrMetallicRoughness": {
        "baseColorTexture": {
          "index": 3
        },
        "metallicFactor": 0.0,
        "roughnessFactor": 0.6342256411356907
      }
    },
    {
      "doubleSided": true,
      "name": "mat0.022",
      "pbrMetallicRoughness": {
        "baseColorTexture": {
          "index": 4
        },
        "metallicFactor": 0.0,
        "roughnessFactor": 0.6342256411356907
      }
    },
    {
      "doubleSided": true,
      "name": "mat0.023",
      "pbrMetallicRoughness": {
        "baseColorTexture": {
          "index": 5
        },
        "metallicFactor": 0.0,
        "roughnessFactor": 0.6342256411356907
      }
    }
  ],
  "meshes": [
    {
      "name": "Object_0",
      "primitives": [
        {
          "attributes": {
            "NORMAL": 1,
            "POSITION": 0,
            "TEXCOORD_0": 2
          },
          "indices": 3,
          "material": 0,
          "mode": 4
        }
      ]
    },
    {
      "name": "Object_1",
      "primitives": [
        {
          "attributes": {
            "NORMAL": 5,
            "POSITION": 4,
            "TEXCOORD_0": 6
          },
          "indices": 7,
          "material": 1,
          "mode": 4
        }
      ]
    },
    {
      "name": "Object_2",
      "primitives": [
        {
          "attributes": {
            "NORMAL": 9,
            "POSITION": 8,
            "TEXCOORD_0": 10
          },
          "indices": 11,
          "material": 2,
          "mode": 4
        }
      ]
    },
    {
      "name": "Object_3",
      "primitives": [
        {
          "attributes": {
            "NORMAL": 13,
            "POSITION": 12,
            "TEXCOORD_0": 14
          },
          "indices": 15,
          "material": 3,
          "mode": 4
        }
      ]
    },
    {
      "name": "Object_4",
      "primitives": [
        {
          "attributes": {
            "NORMAL": 17,
            "POSITION": 16,
            "TEXCOORD_0": 18
          },
          "indices": 19,
          "material": 4,
          "mode": 4
        }
      ]
    },
    {
      "name": "Object_5",
      "primitives": [
        {
          "attributes": {
            "NORMAL": 21,
            "POSITION": 20,
            "TEXCOORD_0": 22
          },
          "indices": 23,
          "material": 5,
          "mode": 4
        }
      ]
    }
  ],
  "nodes": [
    {
      "children": [
        1
      ],
      "matrix": [
        1.0,
        0.0,
        0.0,
        0.0,
        0.0,
        2.220446049250313e-16,
        -1.0,
        0.0,
        0.0,
        1.0,
        2.220446049250313e-16,
        0.0,
        0.0,
        0.0,
        0.0,
        1.0
      ],
      "name": "Sketchfab_model"
    },
    {
      "children": [
        2,
        3,
        4,
        5,
        6,
        7
      ],
      "name": "GIRL 2obj.obj.cleaner.materialmerger.gles"
    },
    {
      "mesh": 0,
      "name": "Object_2"
    },
    {
      "mesh": 1,
      "name": "Object_3"
    },
    {
      "mesh": 2,
      "name": "Object_4"
    },
    {
      "mesh": 3,
      "name": "Object_5"
    },
    {
      "mesh": 4,
      "name": "Object_6"
    },
    {
      "mesh": 5,
      "name": "Object_7"
    }
  ],
  "samplers": [
    {
      "magFilter": 9729,
      "minFilter": 9987,
      "wrapS": 10497,
      "wrapT": 10497
    }
  ],
  "scene": 0,
  "scenes": [
    {
      "name": "Sketchfab_Scene",
      "nodes": [
        0
      ]
    }
  ],
  "textures": [
    {
      "sampler": 0,
      "source": 0
    },
    {
      "sampler": 0,
      "source": 1
    },
    {
      "sampler": 0,
      "source": 2
    },
    {
      "sampler": 0,
      "source": 3
    },
    {
      "sampler": 0,
      "source": 4
    },
    {
      "sampler": 0,
      "source": 5
    }
  ]
}
